# xmcd CD database file
# Copyright (C) 1995-1998 Ti Kan
#
# Track frame offsets:
#	150
#	19825
#	31070
#	46365
#	59040
#	72300
#	87045
#	98767
#	112852
#	124442
#	141957
#	162850
#	179807
#	200065
#	221777
#	236370
#
# Disc length: 3361 seconds
#
# Revision: 1
# Processed by: cddbd v1.4PL0 Copyright (c) Steve Scherf et al.
# Submitted via: CDex 1.30Release
#
DISCID=eb0d1f10
DTITLE=Various Artist - Adventures In Music # 44 Country
DYEAR=1992
DGENRE=Country
TTITLE0=John Lincoln Wright/And When I Go...
TTITLE1=Sylvie and Friends/Time Is A Bandit
TTITLE2=Charlie Louvin/Country Boy's Dream
TTITLE3=David Schnaufer/O Pony
TTITLE4=Ralph Litwin and Friends/Merle Haggard Was Eatin' Tofus
TTITLE5=Charlie Louvin/...And That's The Gospel
TTITLE6=Tina Turner/Stand By Your Man
TTITLE7=Sean Grissom/Texas Stomp
TTITLE8=Allan "Mac" McHale and The Old Time Radio Gang/The Old Blues Back Agai
TTITLE8=n
TTITLE9=Reynold Philipsek/Life Ain't Fair
TTITLE10=Patrick W. McElhoes/Willie
TTITLE11=Joe Stephenson/Wonderin'
TTITLE12=Reilly and Maloney/The Bramble And The Rose
TTITLE13=Frankie Maximum/I'm A Poor, Lonesome Cowboy
TTITLE14=Reynold's Remarkable Rhythm Cattle/Uptown and Country
TTITLE15=Unknown/Teenage Wedding - Love Me
EXTD=YEAR: 1992 ID3G:   2
EXTT0=
EXTT1=
EXTT2=
EXTT3=
EXTT4=
EXTT5=
EXTT6=
EXTT7=
EXTT8=
EXTT9=
EXTT10=
EXTT11=
EXTT12=
EXTT13=
EXTT14=
EXTT15=
PLAYORDER=
